<mxfile host="app.diagrams.net" modified="2024-04-25T22:55:15.302Z" agent="Mozilla/5.0 (Macintosh; Intel Mac OS X 10_15_7) AppleWebKit/537.36 (KHTML, like Gecko) Chrome/123.0.0.0 Safari/537.36" etag="yJV-6hq9eSLdJAMpIjkm" version="24.3.0" type="device">
  <diagram name="Page-1" id="_F0TKDcOiD18K07qAyfa">
    <mxGraphModel dx="2522" dy="1373" grid="1" gridSize="10" guides="1" tooltips="1" connect="1" arrows="1" fold="1" page="1" pageScale="1" pageWidth="850" pageHeight="1100" math="0" shadow="0">
      <root>
        <mxCell id="0" />
        <mxCell id="1" parent="0" />
        <mxCell id="BH601TtkYqUijvPmp--m-1" value="" style="shape=cylinder3;whiteSpace=wrap;html=1;boundedLbl=1;backgroundOutline=1;size=15;" vertex="1" parent="1">
          <mxGeometry x="260" y="240" width="60" height="80" as="geometry" />
        </mxCell>
        <mxCell id="BH601TtkYqUijvPmp--m-2" value="Source - 1&lt;br&gt;[Promotions Team]" style="rounded=0;whiteSpace=wrap;html=1;" vertex="1" parent="1">
          <mxGeometry x="50" y="110" width="120" height="60" as="geometry" />
        </mxCell>
        <mxCell id="BH601TtkYqUijvPmp--m-3" value="Source - 2&lt;br&gt;[Sales Team]" style="rounded=0;whiteSpace=wrap;html=1;" vertex="1" parent="1">
          <mxGeometry x="50" y="210" width="120" height="60" as="geometry" />
        </mxCell>
        <mxCell id="BH601TtkYqUijvPmp--m-4" value="Source - 3&lt;br&gt;[Operations Team]" style="rounded=0;whiteSpace=wrap;html=1;" vertex="1" parent="1">
          <mxGeometry x="50" y="310" width="120" height="60" as="geometry" />
        </mxCell>
        <mxCell id="BH601TtkYqUijvPmp--m-5" value="Source - 4&lt;br&gt;[Catelog Team]" style="rounded=0;whiteSpace=wrap;html=1;" vertex="1" parent="1">
          <mxGeometry x="50" y="410" width="120" height="60" as="geometry" />
        </mxCell>
        <mxCell id="BH601TtkYqUijvPmp--m-7" style="edgeStyle=orthogonalEdgeStyle;rounded=0;orthogonalLoop=1;jettySize=auto;html=1;exitX=1;exitY=0.5;exitDx=0;exitDy=0;entryX=0;entryY=1;entryDx=0;entryDy=-15;entryPerimeter=0;" edge="1" parent="1" source="BH601TtkYqUijvPmp--m-4" target="BH601TtkYqUijvPmp--m-1">
          <mxGeometry relative="1" as="geometry" />
        </mxCell>
        <mxCell id="BH601TtkYqUijvPmp--m-8" style="edgeStyle=orthogonalEdgeStyle;rounded=0;orthogonalLoop=1;jettySize=auto;html=1;exitX=1;exitY=0.5;exitDx=0;exitDy=0;entryX=0;entryY=0.5;entryDx=0;entryDy=0;entryPerimeter=0;" edge="1" parent="1" source="BH601TtkYqUijvPmp--m-3" target="BH601TtkYqUijvPmp--m-1">
          <mxGeometry relative="1" as="geometry" />
        </mxCell>
        <mxCell id="BH601TtkYqUijvPmp--m-9" style="edgeStyle=orthogonalEdgeStyle;rounded=0;orthogonalLoop=1;jettySize=auto;html=1;entryX=0.5;entryY=0;entryDx=0;entryDy=0;entryPerimeter=0;" edge="1" parent="1" source="BH601TtkYqUijvPmp--m-2" target="BH601TtkYqUijvPmp--m-1">
          <mxGeometry relative="1" as="geometry" />
        </mxCell>
        <mxCell id="BH601TtkYqUijvPmp--m-16" style="edgeStyle=orthogonalEdgeStyle;rounded=0;orthogonalLoop=1;jettySize=auto;html=1;entryX=0;entryY=0.5;entryDx=0;entryDy=0;" edge="1" parent="1" source="BH601TtkYqUijvPmp--m-10" target="BH601TtkYqUijvPmp--m-11">
          <mxGeometry relative="1" as="geometry" />
        </mxCell>
        <mxCell id="BH601TtkYqUijvPmp--m-10" value="Data Lake" style="text;strokeColor=none;align=center;fillColor=none;html=1;verticalAlign=middle;whiteSpace=wrap;rounded=0;" vertex="1" parent="1">
          <mxGeometry x="260" y="270" width="60" height="30" as="geometry" />
        </mxCell>
        <mxCell id="BH601TtkYqUijvPmp--m-18" style="edgeStyle=orthogonalEdgeStyle;rounded=0;orthogonalLoop=1;jettySize=auto;html=1;entryX=0;entryY=0.5;entryDx=0;entryDy=0;" edge="1" parent="1" source="BH601TtkYqUijvPmp--m-11" target="BH601TtkYqUijvPmp--m-13">
          <mxGeometry relative="1" as="geometry" />
        </mxCell>
        <mxCell id="BH601TtkYqUijvPmp--m-19" style="edgeStyle=orthogonalEdgeStyle;rounded=0;orthogonalLoop=1;jettySize=auto;html=1;entryX=0;entryY=0.5;entryDx=0;entryDy=0;" edge="1" parent="1" source="BH601TtkYqUijvPmp--m-11" target="BH601TtkYqUijvPmp--m-14">
          <mxGeometry relative="1" as="geometry">
            <Array as="points">
              <mxPoint x="480" y="440" />
            </Array>
          </mxGeometry>
        </mxCell>
        <mxCell id="BH601TtkYqUijvPmp--m-20" style="edgeStyle=orthogonalEdgeStyle;rounded=0;orthogonalLoop=1;jettySize=auto;html=1;entryX=0;entryY=0.5;entryDx=0;entryDy=0;" edge="1" parent="1" source="BH601TtkYqUijvPmp--m-11" target="BH601TtkYqUijvPmp--m-12">
          <mxGeometry relative="1" as="geometry">
            <Array as="points">
              <mxPoint x="480" y="140" />
            </Array>
          </mxGeometry>
        </mxCell>
        <mxCell id="BH601TtkYqUijvPmp--m-11" value="Data Warehouse&lt;div&gt;[BiqQuery]&lt;/div&gt;" style="whiteSpace=wrap;html=1;aspect=fixed;" vertex="1" parent="1">
          <mxGeometry x="430" y="235" width="100" height="100" as="geometry" />
        </mxCell>
        <mxCell id="BH601TtkYqUijvPmp--m-12" value="ML team&amp;nbsp;&lt;br&gt;[ build a pipeline to get features for their models ]" style="rounded=1;whiteSpace=wrap;html=1;" vertex="1" parent="1">
          <mxGeometry x="640" y="110" width="140" height="60" as="geometry" />
        </mxCell>
        <mxCell id="BH601TtkYqUijvPmp--m-13" value="Engineering team &lt;br&gt;[ using data as part of their data warehouse ]" style="rounded=1;whiteSpace=wrap;html=1;" vertex="1" parent="1">
          <mxGeometry x="640" y="255" width="140" height="60" as="geometry" />
        </mxCell>
        <mxCell id="BH601TtkYqUijvPmp--m-14" value="&lt;span style=&quot;text-align: start; background-color: rgb(255, 255, 255);&quot;&gt;&lt;font style=&quot;font-size: 12px;&quot; face=&quot;Helvetica&quot;&gt;BI team &lt;br&gt;[ build dashboards using data ]&lt;/font&gt;&lt;/span&gt;" style="rounded=1;whiteSpace=wrap;html=1;fontSize=11;" vertex="1" parent="1">
          <mxGeometry x="640" y="410" width="140" height="60" as="geometry" />
        </mxCell>
        <mxCell id="BH601TtkYqUijvPmp--m-15" style="edgeStyle=orthogonalEdgeStyle;rounded=0;orthogonalLoop=1;jettySize=auto;html=1;entryX=0.5;entryY=1;entryDx=0;entryDy=0;entryPerimeter=0;" edge="1" parent="1" source="BH601TtkYqUijvPmp--m-5" target="BH601TtkYqUijvPmp--m-1">
          <mxGeometry relative="1" as="geometry" />
        </mxCell>
        <mxCell id="BH601TtkYqUijvPmp--m-17" value="ETL" style="text;html=1;align=center;verticalAlign=middle;resizable=0;points=[];autosize=1;strokeColor=none;fillColor=none;" vertex="1" parent="1">
          <mxGeometry x="340" y="290" width="50" height="30" as="geometry" />
        </mxCell>
      </root>
    </mxGraphModel>
  </diagram>
</mxfile>
